# xmcd CD database file
#
# Track frame offsets:
#	150
#	4632
#	17910
#	30257
#	46992
#	65175
#	75212
#	89157
#	100310
#	115827
#	130400
#	155840
#
# Disc length: 4440 seconds
#
# Revision: 4
# Processed by: cddbd v1.5.1PL2 Copyright (c) Steve Scherf et al.
# Submitted via: CDex 1.51
#
DISCID=9611560c
DTITLE=B-DASH - ビック ブラック ストア (連絡しろ)
DYEAR=2004
DGENRE=JPop
TTITLE0=ビック ブラック ストア (連絡しろ)
TTITLE1=ボンゴ
TTITLE2=やまびこ
TTITLE3=スーパーカーニバル
TTITLE4=栗坊
TTITLE5=埴生の宿
TTITLE6=ユメザムライ
TTITLE7=がんばれ
TTITLE8=SECTOR
TTITLE9=子供心
TTITLE10=情熱たましい
TTITLE11=でーた
EXTD=YEAR: 2004
EXTT0=
EXTT1=
EXTT2=
EXTT3=
EXTT4=
EXTT5=
EXTT6=
EXTT7=
EXTT8=
EXTT9=
EXTT10=
EXTT11=
PLAYORDER=
